<svg data-v-fde0c5aa="" xmlns="http://www.w3.org/2000/svg" viewBox="0 0 300 300" class="font"><!----><defs data-v-fde0c5aa=""><!----></defs><rect data-v-fde0c5aa="" fill="transparent" x="0" y="0" width="300px" height="300px" class="logo-background-square"></rect><defs data-v-fde0c5aa=""><linearGradient data-v-fde0c5aa="" gradientTransform="rotate(25)" id="5af238c5-31e0-410c-a882-23e685f83bc9" x1="0%" y1="0%" x2="100%" y2="0%"><stop data-v-fde0c5aa="" offset="0%" stop-color="#395ECA" stop-opacity="1"></stop><stop data-v-fde0c5aa="" offset="100%" stop-color="#848BD8" stop-opacity="1"></stop></linearGradient></defs><g data-v-fde0c5aa="" id="20adc71e-d96b-485a-bdba-5787f6b03644" fill="url(#5af238c5-31e0-410c-a882-23e685f83bc9)" transform="matrix(2.686858907910093,0,0,2.686858907910093,38.89838785736582,134.95359045201695)"><path d="M9.46 2.30L10.08 9.45L8.89 9.91L8.99 10.50L12.67 10.50L12.77 9.91L11.58 9.45L10.92 1.75L12.14 1.29L12.03 0.70L9.42 0.70L6.31 8.97L6.31 7.95L3.85 0.70L1.32 0.70L1.22 1.29L2.44 1.75L1.61 9.45L0.41 9.91L0.52 10.50L3.30 10.50L3.40 9.91L2.21 9.45L2.94 2.62L5.68 10.74L6.37 10.50ZM19.53 1.29L20.12 2.91L20.71 2.80L20.71 0.70L13.92 0.70L13.80 1.29L15.02 1.75L15.02 9.45L13.83 9.91L13.93 10.50L20.96 10.50L20.96 7.91L20.37 7.81L19.60 9.91L16.51 9.91L16.51 5.60L18.21 5.60L18.65 6.78L19.24 6.68L19.24 3.92L18.65 3.82L18.21 5.00L16.51 5.00L16.51 1.29ZM24.64 1.29L25.93 1.29C27.44 1.29 28.03 2.14 28.03 3.39C28.03 4.40 27.22 5.49 25.90 5.49L25.24 5.49L25.24 6.08L27.59 9.91L27.48 10.50L30.14 10.50L30.24 9.91L29.04 9.45L27.22 6.47L26.49 6.10C28.04 6.10 29.46 5.08 29.46 3.39C29.46 1.72 28.49 0.70 26.46 0.70L22.05 0.70L21.94 1.29L23.16 1.75L23.16 9.45L21.97 9.91L22.06 10.50L25.75 10.50L25.84 9.91L24.64 9.45ZM30.90 9.91L31.01 10.50L33.78 10.50L33.88 9.91L32.69 9.45L32.69 1.95L38.23 10.74L39.06 10.50L39.06 1.75L40.26 1.29L40.17 0.70L37.38 0.70L37.28 1.29L38.49 1.75L38.49 8.34L33.66 0.70L30.98 0.70L30.88 1.29L32.10 1.75L32.10 9.45ZM47.33 1.29L48.44 1.29C49.80 1.29 50.30 2.07 50.30 3.04C50.30 4.00 49.52 4.79 48.55 4.79L47.92 4.79L47.92 5.38L49.03 5.38C50.33 5.38 51.27 6.43 51.27 7.66C51.27 8.89 50.48 9.91 49.35 9.91L47.33 9.91ZM49.76 10.50C51.70 10.50 52.91 9.30 52.91 7.81C52.91 6.33 51.70 5.12 50.22 5.12L50.22 5.07C51.20 4.84 51.94 3.96 51.94 2.91C51.94 1.69 50.90 0.70 49.53 0.70L44.73 0.70L44.63 1.29L45.85 1.75L45.85 9.45L44.65 9.91L44.76 10.50ZM54.19 0.70L54.10 1.29L55.31 1.75L55.31 9.45L54.10 9.91L54.19 10.50L61.22 10.50L61.22 7.91L60.63 7.81L59.82 9.91L56.80 9.91L56.80 1.75L58.02 1.29L57.92 0.70ZM66.88 0.46C63.76 0.46 62.20 3.01 62.20 5.60C62.20 8.19 63.53 10.74 66.88 10.74C70.21 10.74 71.54 8.50 71.54 5.60C71.54 2.70 69.99 0.46 66.88 0.46ZM66.88 1.15C68.96 1.15 69.90 2.62 69.90 5.53C69.90 8.43 69.01 10.05 66.88 10.05C64.75 10.05 63.85 8.51 63.85 5.53C63.85 2.53 64.78 1.15 66.88 1.15ZM74.51 5.53C74.51 3.26 75.45 1.15 77.99 1.15C78.53 1.15 79.23 1.25 79.81 1.41L80.49 3.29L81.07 3.19L81.07 1.29C80.11 0.73 79.24 0.46 77.99 0.46C74.86 0.46 72.87 2.73 72.87 5.60C72.87 8.19 74.35 10.74 77.99 10.74C79.14 10.74 80.37 10.42 81.07 9.91L81.07 6.96L82.29 6.48L82.18 5.89L78.47 5.89L78.37 6.48L79.58 6.96L79.58 9.86C79.06 9.98 78.43 10.05 77.98 10.05C75.21 10.05 74.51 7.69 74.51 5.53Z"></path></g><!----><!----></svg>